<svg width="161" height="161" viewBox="0 0 161 161" fill="none" xmlns="http://www.w3.org/2000/svg">
<path d="M40.2366 13.4167C48.795 13.4143 57.1912 15.7509 64.5181 20.174C71.8449 24.597 77.8236 30.9383 81.8081 38.5126C85.8335 32.8244 91.1654 28.1856 97.3557 24.9859C103.546 21.7863 110.414 20.1193 117.382 20.125H140.862V36.8959C140.862 48.4604 136.268 59.5513 128.09 67.7287C119.913 75.906 108.822 80.5 97.2574 80.5H87.1949V87.2084H120.737V134.167C120.737 137.725 119.323 141.138 116.807 143.654C114.291 146.17 110.878 147.583 107.32 147.583H53.6533C50.0949 147.583 46.6824 146.17 44.1662 143.654C41.6501 141.138 40.2366 137.725 40.2366 134.167V87.2084H73.7783V73.7917H60.3616C47.9075 73.7917 35.9634 68.8443 27.157 60.0379C18.3506 51.2315 13.4033 39.2875 13.4033 26.8334V13.4167H40.2366ZM107.32 100.625H53.6533V134.167H107.32V100.625ZM127.445 33.5417H117.382C109.376 33.5417 101.698 36.7221 96.0366 42.3834C90.3754 48.0447 87.1949 55.723 87.1949 63.7292V67.0834H97.2574C101.222 67.0834 105.147 66.3025 108.81 64.7855C112.472 63.2684 115.8 61.0448 118.603 58.2416C121.406 55.4385 123.63 52.1106 125.147 48.4481C126.664 44.7856 127.445 40.8601 127.445 36.8959V33.5417ZM40.2366 26.8334H26.8199C26.8199 35.7292 30.3538 44.2606 36.6441 50.5509C42.9343 56.8412 51.4658 60.375 60.3616 60.375H73.7783C73.7783 51.4792 70.2444 42.9478 63.9541 36.6575C57.6638 30.3672 49.1324 26.8334 40.2366 26.8334Z" fill="#02542D"/>
</svg>
