<svg width="414" height="71" viewBox="0 0 414 71" fill="none" xmlns="http://www.w3.org/2000/svg">
<path d="M346.447 20.2437C348.074 20.2437 349.184 20.4057 349.782 20.7323C350.377 21.059 350.667 21.6313 350.65 22.4466C350.63 23.2618 350.461 24.3786 350.135 25.7941L348.239 34.9377H330.719L332.569 25.7941C332.894 24.3786 333.211 23.2646 333.517 22.4466C333.823 21.6313 334.349 21.059 335.089 20.7323C335.828 20.4057 337.03 20.2437 338.693 20.2437L338.963 18.6105H324.052L323.727 20.2437C325.318 20.2437 326.439 20.4057 327.089 20.7323C327.74 21.059 328.093 21.6229 328.146 22.4186C328.202 23.2171 328.066 24.3423 327.74 25.7913L323.296 47.2333C322.97 48.8303 322.617 50.0281 322.239 50.8265C321.861 51.625 321.299 52.1415 320.559 52.3789C319.816 52.6162 318.723 52.7334 317.28 52.7334L316.954 54.3667H331.809L332.135 52.7334C330.652 52.7334 329.576 52.6078 328.908 52.3537C328.238 52.0997 327.879 51.5832 327.824 50.8014C327.768 50.0225 327.904 48.8331 328.23 47.2361L330.288 37.0595H347.796L345.685 47.2361C345.36 48.7968 345.043 49.975 344.737 50.7735C344.428 51.572 343.941 52.0997 343.274 52.3509C342.604 52.605 341.566 52.7306 340.156 52.7306L339.886 54.3639H354.199L354.524 52.7306C353.006 52.7306 351.913 52.5938 351.245 52.323C350.575 52.0522 350.224 51.5245 350.188 50.7456C350.152 49.9666 350.297 48.7968 350.622 47.2361L355.014 25.7941C355.339 24.3423 355.645 23.2171 355.934 22.4214C356.224 21.6229 356.738 21.0618 357.481 20.7351C358.221 20.4085 359.386 20.2465 360.977 20.2465L361.302 18.6132H346.773L346.447 20.2465V20.2437Z" fill="#F2F7A5"/>
<path d="M384.262 50.4496C383.667 50.9215 383.041 51.156 382.39 51.156C381.956 51.156 381.659 51.0555 381.495 50.8573C381.333 50.659 381.25 50.4496 381.25 50.2319C381.25 49.8326 381.358 49.0537 381.575 47.8922L385.586 28.6251H381.086L379.35 36.3001C379.133 37.2801 378.736 38.4136 378.157 39.7007C377.579 40.9878 376.892 42.286 376.096 43.5927C375.301 44.8993 374.441 46.1138 373.521 47.2389C372.6 48.3641 371.677 49.2714 370.756 49.961C369.835 50.6507 368.976 50.9941 368.181 50.9941C367.602 50.9941 367.185 50.7847 366.935 50.3687C366.681 49.9527 366.554 49.4166 366.554 48.7633C366.554 48.2552 366.679 47.3841 366.935 46.1501L370.675 28.4632H368.996L361.675 29.0607V30.5292C361.964 30.4929 362.254 30.4678 362.543 30.4482C362.832 30.4315 363.158 30.4203 363.519 30.4203C363.989 30.4203 364.431 30.5208 364.849 30.7191C365.263 30.9201 365.472 31.3082 365.472 31.8889C365.472 32.2155 365.427 32.6511 365.335 33.1955C365.244 33.7399 365.11 34.4463 364.929 35.3174L362.326 47.0184C362.254 47.3813 362.145 47.9536 362.001 48.7326C361.856 49.5143 361.784 50.2654 361.784 50.9913C361.784 52.0075 362.037 52.9149 362.543 53.7134C363.049 54.5119 363.989 54.9111 365.363 54.9111C366.954 54.9111 368.389 54.5119 369.674 53.7134C370.956 52.9149 372.105 51.9098 373.117 50.6925C374.13 49.478 375.023 48.2356 375.801 46.9653C376.577 45.695 377.239 44.5894 377.779 43.6457H378.266C377.796 45.4242 377.39 46.929 377.045 48.163C376.7 49.3971 376.53 50.6479 376.53 51.9182C376.53 53.1159 376.892 53.906 377.615 54.2858C378.338 54.6655 379.061 54.8581 379.784 54.8581C380.905 54.8581 381.89 54.6208 382.738 54.1517C383.586 53.6799 384.393 53.0182 385.149 52.1639C385.909 51.3123 386.685 50.3045 387.48 49.143L386.343 48.3278C385.547 49.2714 384.852 49.9806 384.257 50.4496H384.262Z" fill="#F2F7A5"/>
<path d="M411.858 30.613C410.429 29.0718 408.688 28.2985 406.627 28.2985C405.723 28.2985 404.855 28.4604 404.023 28.787C403.192 29.1137 402.396 29.5939 401.637 30.2305C400.878 30.8642 400.118 31.6181 399.359 32.4891H399.089L402.56 16H401.367L393.886 16.5975V18.013C394.681 17.9404 395.223 17.9041 395.513 17.9041C396.055 17.9041 396.517 18.013 396.895 18.2308C397.276 18.4485 397.465 18.8645 397.465 19.4815C397.465 19.8082 397.437 20.1795 397.384 20.5983C397.329 21.0171 397.284 21.2795 397.248 21.3884L390.851 53.007C393.488 54.35 396.344 55.02 399.418 55.02C401.768 55.02 403.845 54.5482 405.653 53.6045C407.461 52.6608 408.98 51.3821 410.206 49.7684C411.436 48.1547 412.376 46.312 413.027 44.2432C413.677 42.1744 414.003 40.0357 414.003 37.8217C414.003 34.5552 413.288 32.1541 411.861 30.6102L411.858 30.613ZM408.254 45.4967C407.603 47.7108 406.599 49.4697 405.244 50.7763C403.89 52.0829 402.182 52.7362 400.121 52.7362C399.037 52.7362 398.116 52.4905 397.357 52.0019C396.597 51.5134 396.035 51.1029 395.677 50.7763L398.333 37.1712C398.694 36.3001 399.181 35.4207 399.796 34.5328C400.411 33.645 401.159 32.8912 402.046 32.2742C402.93 31.6571 403.918 31.35 405 31.35C406.157 31.35 407.15 31.8498 407.981 32.8465C408.813 33.846 409.227 35.577 409.227 38.0451C409.227 40.8035 408.902 43.2883 408.251 45.5023L408.254 45.4967Z" fill="#F2F7A5"/>
<path d="M116.964 35.7557C114.308 34.558 110.35 33.578 106.284 32.598C102.273 31.6181 100.699 30.3114 100.699 28.0276C100.699 25.3055 102.921 23.7811 107.151 23.7811C111.704 23.7811 113.929 25.5763 114.308 29.2784H121.464C121.194 22.3656 116.096 17.4127 106.987 17.4127C97.8784 17.4127 93.8121 22.0417 93.8121 28.5162C93.8121 33.0866 95.9816 35.6999 99.8309 37.442C102.379 38.5839 105.252 39.2372 109.699 40.2172C114.199 41.1972 115.284 42.6657 115.284 44.7876C115.284 47.9983 112.736 49.9024 108.289 49.9024C103.463 49.9024 100.373 47.6158 100.265 43.9165H93C93.1613 52.0243 99.3442 56 108.236 56C116.638 56 122.604 52.4626 122.604 44.5168C122.604 39.402 120.109 37.1684 116.967 35.7557H116.964Z" fill="#F2F7A5"/>
<path d="M140.494 27.9746L131.71 38.1512V18.1777H124.607V54.7492H131.71V46.2589L135.126 42.7216L140.98 54.7492H148.896L140.168 37.8245L149.113 27.9746H140.494Z" fill="#F2F7A5"/>
<path d="M158.005 27.9746H150.957V54.752H158.005V27.9746Z" fill="#F2F7A5"/>
<path d="M168.248 18.1777H161.201V54.7492H168.248V18.1777Z" fill="#F2F7A5"/>
<path d="M178.281 18.1777H171.233V54.7492H178.281V18.1777Z" fill="#F2F7A5"/>
<path d="M204.141 35.7557C201.485 34.558 197.527 33.578 193.461 32.598C189.45 31.6181 187.876 30.3114 187.876 28.0276C187.876 25.3055 190.099 23.7811 194.329 23.7811C198.882 23.7811 201.107 25.5763 201.485 29.2784H208.642C208.372 22.3656 203.274 17.4127 194.165 17.4127C185.056 17.4127 180.99 22.0389 180.99 28.5162C180.99 33.0866 183.159 35.6999 187.008 37.442C189.556 38.5839 192.429 39.2372 196.877 40.2172C201.377 41.1972 202.461 42.6657 202.461 44.7876C202.461 47.9983 199.914 49.9024 195.466 49.9024C190.641 49.9024 187.551 47.6158 187.442 43.9165H180.178C180.339 52.0243 186.522 56 195.414 56C203.816 56 209.782 52.4626 209.782 44.5168C209.782 39.402 207.287 37.1684 204.144 35.7557H204.141Z" fill="#F2F7A5"/>
<path d="M226.695 27.2654C223.118 27.2654 219.864 29.0607 218.835 31.4561V18.1777H211.787V54.7492H218.835V39.402C218.835 35.8087 220.788 32.8716 224.311 32.8716C227.51 32.8716 228.864 34.1224 228.864 38.1512V54.7492H235.968V35.8088C235.968 30.4762 232.171 27.2654 226.698 27.2654H226.695Z" fill="#F2F7A5"/>
<path d="M250.929 27.2654C242.362 27.2654 239.328 31.1295 239.219 36.6798H245.78C246.106 34.2844 247.408 32.7069 250.606 32.7069C253.371 32.7069 255.106 33.7399 255.106 35.4821C255.106 37.3331 254.13 38.0395 250.606 38.5309C243.503 39.5109 238.354 40.3819 238.354 48.11C238.354 52.4626 241.175 55.4584 247.246 55.4584C250.826 55.4584 253.643 54.2076 255.323 52.3565C255.376 53.1718 255.54 54.0987 255.757 54.752H262.318V37.8273C262.318 31.0792 259.389 27.2682 250.931 27.2682L250.929 27.2654ZM255.212 44.5726C255.159 47.7303 252.447 50.3966 248.815 50.3966C246.593 50.3966 245.399 49.4166 245.399 47.4036C245.399 45.1171 246.701 43.9752 250.712 43.213C253.315 42.7244 254.561 42.3419 255.265 41.6355L255.209 44.5754L255.212 44.5726Z" fill="#F2F7A5"/>
<path d="M279.935 27.2654C277.062 27.2654 274.35 27.5921 272.019 31.1853V27.9746H265.405V54.752H272.453V40.8203C272.453 36.5207 274.567 34.343 278.906 34.343C279.557 34.343 280.208 34.3988 280.858 34.5049V27.2654H279.935Z" fill="#F2F7A5"/>
<path d="M293.488 27.2654C285.303 27.2654 280.586 32.598 280.586 40.8705C280.586 50.5585 285.03 55.4556 293.922 55.4556C299.616 55.4556 304.007 52.3537 305.634 46.8564H298.37C297.883 48.7075 295.875 49.8494 293.6 49.8494C290.129 49.8494 287.853 47.2361 287.636 43.2102H306.015C306.015 32.598 301.679 27.2626 293.491 27.2626L293.488 27.2654ZM287.851 38.7487C288.12 35.0466 290.454 32.8716 293.271 32.8716C296.089 32.8716 298.639 34.7757 298.748 38.7487H287.851Z" fill="#F2F7A5"/>
<path d="M159.821 19.1186C158.008 18.4206 156.194 17.7226 154.381 17.0218C154.242 16.9688 154.117 16.9688 153.98 17.0218C152.164 17.7254 150.345 18.429 148.529 19.127C148.379 19.1856 148.284 19.2749 148.287 19.4313C148.287 19.5597 148.382 19.6714 148.504 19.7189C150.326 20.4196 152.147 21.1204 153.969 21.8268C154.108 21.8798 154.261 21.8798 154.4 21.8268C155.516 21.394 156.631 20.9641 157.746 20.5341C158.161 20.375 158.575 20.2158 159.001 20.0511C159.012 20.0818 159.017 20.093 159.017 20.1013C159.017 21.0981 159.017 22.092 159.017 23.0887C159.017 23.1306 158.973 23.1864 158.934 23.2088C158.684 23.3539 158.547 23.5633 158.544 23.8453C158.542 24.2697 158.542 24.6913 158.544 25.1157C158.544 25.2999 158.636 25.3921 158.828 25.3948C159.131 25.4004 159.435 25.4004 159.738 25.3948C159.885 25.3921 160.005 25.2748 160.005 25.1296C160.007 24.6773 160.01 24.225 160.005 23.7727C160.002 23.541 159.857 23.3428 159.649 23.2339C159.554 23.1836 159.526 23.1278 159.526 23.0301C159.529 22.0752 159.526 21.1176 159.526 20.1628C159.526 19.9673 159.654 19.8026 159.841 19.73C159.98 19.6742 160.077 19.5848 160.083 19.4341C160.088 19.2694 159.977 19.1772 159.824 19.1186H159.821Z" fill="#F2F7A5"/>
<path d="M154.378 22.173C154.278 22.212 154.136 22.226 154.042 22.1897C153.182 21.8714 152.331 21.5364 151.477 21.207C151.068 21.0506 150.659 20.8915 150.226 20.7239C150.226 21.4582 150.212 22.1646 150.231 22.8709C150.239 23.2144 150.429 23.4852 150.735 23.6666C150.926 23.7811 151.124 23.89 151.324 23.9877L151.333 23.9933C151.527 24.091 151.811 24.2725 152 24.588C152.214 24.9453 152.114 25.1603 152.248 25.4339C152.609 26.1878 154.133 26.1738 154.292 26.171C154.704 26.1682 155.844 26.1543 156.372 25.4395C156.764 24.9091 156.656 24.2167 157.257 23.8788C157.379 23.8118 157.449 23.7755 157.607 23.6806C157.935 23.488 158.141 23.1446 158.147 22.7732C158.15 22.4857 158.147 22.1953 158.147 21.9077V20.7267C158.086 20.7491 158.038 20.763 157.991 20.7798C156.789 21.2432 155.585 21.7095 154.381 22.1646L154.378 22.173Z" fill="#F2F7A5"/>
<path d="M35.4993 70.9986C55.105 70.9986 70.9986 55.105 70.9986 35.4993C70.9986 15.8936 55.105 0 35.4993 0C15.8936 0 0 15.8936 0 35.4993C0 55.105 15.8936 70.9986 35.4993 70.9986Z" fill="#F2F7A5"/>
<path d="M35.4993 68.3869C53.6626 68.3869 68.3869 53.6626 68.3869 35.4993C68.3869 17.3359 53.6626 2.61165 35.4993 2.61165C17.3359 2.61165 2.61165 17.3359 2.61165 35.4993C2.61165 53.6626 17.3359 68.3869 35.4993 68.3869Z" fill="#021F05"/>
<path d="M52.3075 20.1129C52.4364 20.0599 52.5251 19.9754 52.5294 19.8337C52.5337 19.6776 52.4321 19.5917 52.2932 19.5373C50.6323 18.8786 48.9728 18.2186 47.3133 17.5571C47.1873 17.5069 47.0713 17.5069 46.9453 17.5571C45.2815 18.2214 43.6177 18.8858 41.9525 19.5459C41.8151 19.6003 41.7277 19.6862 41.7306 19.8337C41.7335 19.9554 41.8165 20.0599 41.9296 20.1043C43.5991 20.7658 45.2672 21.4287 46.9339 22.0945C47.0599 22.1446 47.2016 22.1446 47.3276 22.0945C48.3485 21.685 49.3708 21.2798 50.3917 20.8746C50.7711 20.7243 51.1506 20.5739 51.5386 20.4193C51.5472 20.4494 51.5529 20.4579 51.5529 20.468C51.5529 21.4087 51.5558 22.348 51.5529 23.2887C51.5529 23.3273 51.5128 23.3803 51.477 23.4018C51.2479 23.5392 51.1234 23.7354 51.1205 24.0031C51.1177 24.4026 51.1177 24.8021 51.1205 25.2016C51.1205 25.3763 51.2036 25.4622 51.3797 25.4665C51.6574 25.4722 51.9352 25.4708 52.213 25.4665C52.349 25.4636 52.4578 25.3519 52.4578 25.2159C52.4607 24.7892 52.4621 24.3625 52.4564 23.9344C52.4535 23.7168 52.3218 23.5278 52.13 23.4247C52.0426 23.3774 52.0183 23.3245 52.0183 23.2328C52.0211 22.3308 52.0197 21.4273 52.0183 20.5252C52.0183 20.342 52.1371 20.1859 52.3061 20.1172L52.3075 20.1129Z" fill="#F2F7A5"/>
<path d="M50.7554 21.5161C50.6981 21.5361 50.6552 21.5504 50.6122 21.5676C49.5111 22.0043 48.4101 22.4453 47.3076 22.8763C47.2145 22.9121 47.0871 22.9278 46.9983 22.8935C46.2122 22.5928 45.4319 22.2778 44.6501 21.9671C44.2749 21.8182 43.8998 21.6693 43.5032 21.5118C43.5032 22.2048 43.4917 22.872 43.5089 23.5392C43.5175 23.8628 43.6908 24.1191 43.9685 24.2909C44.1446 24.3998 44.3251 24.5014 44.5098 24.5945L44.5184 24.5988C45.031 24.8579 45.3545 25.3834 45.3545 25.9576V34.5185C45.3545 34.7676 45.1527 34.9681 44.9049 34.9681H35.3532C35.0411 34.9681 34.7891 34.7161 34.7891 34.4039C34.7891 32.8203 34.8063 31.2353 34.7862 29.6517C34.749 26.6406 33.3286 24.5143 30.5981 23.2801C28.8227 22.4768 26.9541 22.3809 25.0527 22.7045C21.7795 23.2615 19.1335 25.843 18.6209 28.9945C18.3818 30.4693 18.4548 31.9297 18.9259 33.3544C19.5788 35.3303 21.0264 36.5603 22.8405 37.4079C24.6503 38.2541 26.4974 39.0201 28.2943 39.8907C29.8278 40.6338 30.9461 41.7693 31.0306 43.5877C31.0764 44.5742 31.0592 45.5751 30.9475 46.5544C30.7571 48.2297 29.6832 49.4353 28.0538 49.7961C27.3966 49.9421 26.685 49.9378 26.0091 49.8763C23.8141 49.6787 22.262 47.9734 22.2248 45.7712C22.2076 44.7961 22.222 43.8196 22.222 42.8431V42.3133H18.5049C18.4878 42.836 18.4691 43.602 18.4734 44.5327C18.4777 45.3059 18.4963 45.9459 18.5035 46.0876C18.5608 47.3448 19.4113 50.8699 22.6014 52.5509C24.4298 53.5145 26.4058 53.642 28.416 53.3241C31.5961 52.8215 34.0503 50.5005 34.5557 47.3577C34.7676 46.0447 34.739 44.683 34.7075 43.3457C34.686 42.4365 34.5099 41.5917 34.1834 40.8114C33.9429 40.2372 33.6522 39.7862 33.4661 39.5213C33.0609 38.9457 32.6729 38.5763 32.3851 38.3071C31.7465 37.7072 31.1523 37.3234 30.8172 37.1087C30.7814 37.0858 30.6125 36.9784 30.3834 36.8423C30.0397 36.639 29.7233 36.4715 29.2179 36.2224C28.7153 35.9732 28.3387 35.8 27.8462 35.5723C27.5441 35.4334 27.5297 35.4277 26.6105 35.0082C26.095 34.7733 25.8359 34.6545 25.7213 34.6001C25.0197 34.2693 24.6618 34.099 24.2609 33.8527C23.8929 33.6265 23.6151 33.4518 23.3058 33.1353C23.0009 32.8232 22.829 32.5397 22.7703 32.4395C22.7345 32.3765 22.5756 32.1001 22.451 31.7021C22.421 31.6076 22.3336 31.3169 22.2907 30.9189C22.2778 30.7986 22.242 30.4278 22.2964 29.9352C22.3322 29.6116 22.4124 28.9487 22.8147 28.2141C23.0796 27.7331 23.3731 27.4195 23.4877 27.3035C23.6022 27.1875 23.8643 26.9355 24.258 26.6921C24.3826 26.6148 24.8923 26.3113 25.6483 26.1466C26.433 25.9762 27.0572 26.0507 27.408 26.095C27.8147 26.1466 28.4189 26.2296 29.1033 26.5919C29.4126 26.7551 29.9094 27.0243 30.3304 27.577C30.6239 27.9621 30.7642 28.3316 30.8373 28.5292C30.8802 28.6466 31.0105 29.0131 31.0692 29.5128C31.095 29.7319 31.095 29.9309 31.095 30.3204C31.095 30.7542 31.0821 30.9747 31.0706 31.3957C31.0592 31.808 31.0463 32.2533 31.052 32.7946C31.0563 33.1425 31.0606 33.5148 31.0993 33.9959C31.1379 34.4884 31.1981 34.918 31.2253 35.0697C31.4988 36.5961 33.4704 38.1954 34.9223 38.4947C35.0382 38.519 35.4649 38.5992 36.0147 38.6565C36.5202 38.7094 36.9197 38.7209 37.2418 38.7295C37.6427 38.7409 37.7515 38.7324 38.5562 38.7281C38.8512 38.7266 39.2951 38.7281 40.1842 38.7281C40.5379 38.7281 40.9273 38.7281 41.7062 38.7309C42.1616 38.7309 42.6183 38.7338 43.0736 38.7352C43.9342 38.7366 44.3652 38.7381 44.7861 38.7381H44.7918C45.124 38.7381 45.3932 39.0073 45.3932 39.3394V53.0334H49.1475V52.4206C49.1475 43.5476 49.1475 34.676 49.1475 25.803C49.1475 25.2503 49.4567 24.7506 49.9421 24.4842C50.0495 24.4255 50.1569 24.364 50.2643 24.2981C50.5635 24.1148 50.7525 23.7927 50.7568 23.4419C50.7597 23.1698 50.7568 22.8963 50.7568 22.6243V21.5103L50.7554 21.5161Z" fill="#F2F7A5"/>
</svg>
