<svg width="161" height="161" viewBox="0 0 161 161" fill="none" xmlns="http://www.w3.org/2000/svg">
<path d="M26.8333 134.167C23.1437 134.167 19.9863 132.854 17.3611 130.229C14.7359 127.604 13.4211 124.444 13.4166 120.75V40.25C13.4166 36.5604 14.7315 33.403 17.3611 30.7778C19.9908 28.1526 23.1482 26.8378 26.8333 26.8333H134.167C137.856 26.8333 141.016 28.1481 143.646 30.7778C146.275 33.4075 147.588 36.5649 147.583 40.25V120.75C147.583 124.44 146.271 127.599 143.646 130.229C141.02 132.859 137.861 134.171 134.167 134.167H26.8333ZM26.8333 120.75H97.2708V97.2708H26.8333V120.75ZM110.687 120.75H134.167V60.375H110.687V120.75ZM26.8333 83.8541H97.2708V60.375H26.8333V83.8541Z" fill="#02542D"/>
</svg>
