<svg width="23" height="23" viewBox="0 0 23 23" fill="none" xmlns="http://www.w3.org/2000/svg">
<path d="M9.79451 0C9.47998 0 9.16546 0 8.85094 0C8.78526 0.0120278 8.7205 0.0305322 8.65482 0.0342331C7.62244 0.0971479 6.62244 0.322901 5.6835 0.746651C2.56787 2.15021 0.6946 4.5382 0.125682 7.91802C-0.167565 9.65928 0.0572275 11.3524 0.746404 12.9697C1.77416 15.379 3.53826 17.0601 5.9601 18.0371C7.381 18.6098 8.87036 18.7718 10.3884 18.5821C11.6178 18.4285 12.7714 18.0307 13.8482 17.4135C14.2043 17.2091 14.3024 17.2294 14.5928 17.5199C16.0961 19.0225 17.5947 20.5297 19.1044 22.0248C19.3468 22.2644 19.6178 22.4902 19.912 22.6595C20.7584 23.148 21.7335 23.173 22.4948 22.3237C22.7538 22.035 22.9018 21.7038 22.9989 21.3392V20.7998C22.8287 19.9125 22.2404 19.3028 21.6289 18.6996C20.3236 17.4117 19.0332 16.109 17.7362 14.8127C17.196 14.2724 17.1516 14.3381 17.5595 13.5665C18.7159 11.3774 19.0221 9.05881 18.2728 6.70135C17.1072 3.02824 14.579 0.823444 10.7705 0.12583C10.4485 0.0675409 10.1201 0.0416348 9.79451 0ZM2.43558 9.33082C2.4291 5.54483 5.50404 2.44073 9.31532 2.4398C13.171 2.4398 16.2062 5.51153 16.2163 9.3262C16.2274 13.1261 13.1497 16.2033 9.34307 16.2191C5.54936 16.2348 2.44206 13.1353 2.43558 9.33082Z" fill="#B3B3B3"/>
<path d="M8.95928 3.73696C8.10637 3.74251 7.33393 3.89609 6.59295 4.19957C6.08416 4.40774 5.8455 4.93049 6.02404 5.42918C6.20442 5.93157 6.73911 6.18786 7.26825 5.99449C7.87232 5.77429 8.48472 5.61793 9.13042 5.67066C10.7141 5.80204 11.8899 6.56165 12.6235 7.98186C12.7539 8.23537 12.8705 8.49535 13.1369 8.64061C13.5069 8.84231 13.9334 8.80068 14.2433 8.52959C14.5541 8.25757 14.6586 7.81809 14.4893 7.42488C14.0851 6.48763 13.4903 5.69102 12.6873 5.05909C11.58 4.18846 10.3154 3.75546 8.95928 3.73696Z" fill="#B3B3B3"/>
</svg>
