<svg width="63" height="63" viewBox="0 0 63 63" fill="none" xmlns="http://www.w3.org/2000/svg">
<g clip-path="url(#clip0_2_86)">
<path d="M-0.000295383 34.1111C-0.000295383 32.3896 -0.000295383 30.6692 -0.000295383 28.9477C0.0254327 28.8072 0.0628555 28.668 0.0745501 28.5264C0.323645 25.7364 0.948137 23.0283 1.94686 20.4161C7.86082 4.94936 24.2742 -3.27907 40.1847 1.23012C56.1291 5.74868 66.0426 22.3062 62.1542 38.4412C59.1346 50.9705 51.125 58.8643 38.6796 62.2219C37.116 62.6432 35.5069 62.8047 33.9035 63.0001H28.9895C27.9381 62.8527 26.8739 62.7672 25.8389 62.5484C13.3584 59.907 5.15352 52.4896 1.19606 40.3664C0.532979 38.3371 0.2488 36.2247 -0.00146484 34.1111H-0.000295383ZM31.4792 35.4897C31.4792 35.4792 31.4792 35.4675 31.4792 35.4569C29.5964 35.4569 27.7147 35.4511 25.8319 35.4604C25.2191 35.464 24.5981 35.4523 23.9935 35.5389C19.3356 36.2083 15.8868 39.5565 15.0717 44.1851C14.7255 46.15 14.9746 47.9406 16.6329 49.3017C21.6043 53.3849 27.3136 55.1438 33.6954 54.5692C38.1814 54.1655 42.1903 52.4767 45.7619 49.7054C47.3196 48.4965 48.0271 47.0418 47.9043 45.0499C47.5956 40.0141 43.2534 35.6477 38.2282 35.5014C35.9793 35.4359 33.7281 35.4897 31.4781 35.4897H31.4792ZM31.436 30.1824C37.1652 30.1929 41.7307 25.6427 41.7459 19.9071C41.76 14.1843 37.1921 9.57441 31.4933 9.56154C25.7395 9.54867 21.1517 14.1269 21.1529 19.8801C21.1541 25.6182 25.6986 30.1718 31.436 30.1824Z" fill="#E7F2E4"/>
</g>
<defs>
<clipPath id="clip0_2_86">
<rect width="63" height="63" fill="white"/>
</clipPath>
</defs>
</svg>
