<svg width="23" height="23" viewBox="0 0 23 23" fill="none" xmlns="http://www.w3.org/2000/svg">
<path d="M9.79457 0C9.48005 0 9.16552 0 8.851 0C8.78532 0.0120278 8.72056 0.0305322 8.65488 0.0342331C7.62251 0.0971479 6.62251 0.322901 5.68356 0.746651C2.56793 2.15021 0.694661 4.5382 0.125743 7.91802C-0.167504 9.65928 0.0572885 11.3524 0.746465 12.9697C1.77422 15.379 3.53832 17.0601 5.96016 18.0371C7.38106 18.6098 8.87042 18.7718 10.3885 18.5821C11.6179 18.4285 12.7714 18.0307 13.8482 17.4135C14.2044 17.2091 14.3024 17.2294 14.5929 17.5199C16.0961 19.0225 17.5948 20.5297 19.1045 22.0248C19.3468 22.2644 19.6179 22.4902 19.9121 22.6595C20.7585 23.148 21.7335 23.173 22.4948 22.3237C22.7539 22.035 22.9019 21.7038 22.999 21.3392V20.7998C22.8288 19.9125 22.2405 19.3028 21.629 18.6996C20.3237 17.4117 19.0332 16.109 17.7363 14.8127C17.196 14.2724 17.1516 14.3381 17.5596 13.5665C18.7159 11.3774 19.0221 9.05881 18.2728 6.70135C17.1072 3.02824 14.579 0.823444 10.7705 0.12583C10.4486 0.0675409 10.1202 0.0416348 9.79457 0ZM2.43564 9.33082C2.42917 5.54483 5.5041 2.44073 9.31538 2.4398C13.1711 2.4398 16.2062 5.51153 16.2164 9.3262C16.2275 13.1261 13.1498 16.2033 9.34313 16.2191C5.54942 16.2348 2.44212 13.1353 2.43564 9.33082Z" fill="#B3B3B3"/>
<path d="M8.95934 3.73696C8.10643 3.74251 7.33399 3.89609 6.59301 4.19957C6.08423 4.40774 5.84556 4.93049 6.0241 5.42918C6.20449 5.93157 6.73917 6.18786 7.26831 5.99449C7.87238 5.77429 8.48478 5.61793 9.13048 5.67066C10.7142 5.80204 11.89 6.56165 12.6235 7.98186C12.754 8.23537 12.8705 8.49535 13.137 8.64061C13.507 8.84231 13.9334 8.80068 14.2433 8.52959C14.5542 8.25757 14.6587 7.81809 14.4894 7.42488C14.0852 6.48763 13.4903 5.69102 12.6874 5.05909C11.5801 4.18846 10.3155 3.75546 8.95934 3.73696Z" fill="#B3B3B3"/>
</svg>
