<svg width="161" height="161" viewBox="0 0 161 161" fill="none" xmlns="http://www.w3.org/2000/svg">
<path d="M36.869 17.1063C37.5385 17.6897 37.9963 18.4782 38.171 19.3489C38.3457 20.2196 38.2276 21.1236 37.835 21.9202C37.7635 22.1549 37.7282 22.3993 37.7303 22.6447C37.7303 23.1518 37.8591 24.1178 39.0747 25.3253C39.6623 25.913 40.1131 26.3316 40.6042 26.7904C41.0067 27.1607 41.4333 27.5471 41.9727 28.0784C43.0192 29.0766 44.122 30.2519 45.1122 31.7251C47.1649 34.8082 48.3 38.6642 48.3 44.275C48.3 56.1085 40.4351 64.4 32.2 64.4C23.9648 64.4 16.1 56.1085 16.1 44.275C16.1 41.6507 16.8003 38.5193 17.7663 35.6293C18.7323 32.7394 20.0847 29.7367 21.6464 27.3217C23.506 24.1822 26.1222 21.5499 28.1508 19.7789C29.2671 18.8057 30.4275 17.8843 31.6284 17.0177L31.9826 16.7762C32.7208 16.2842 33.6008 16.0498 34.4859 16.1095C35.371 16.1692 36.2036 16.5196 36.869 17.1063ZM32.2 72.45C37.1224 72.443 41.8944 70.7529 45.724 67.6603C46.105 68.7926 46.427 69.9331 46.69 71.0815C48.3 78.085 48.3 86.5053 48.3 92.3738V92.575C48.3 115.01 45.249 127.737 41.8922 135.015C40.2017 138.677 38.4065 141.012 36.8529 142.477C36.2204 143.082 35.524 143.616 34.776 144.071C34.433 144.277 34.0751 144.457 33.7053 144.61C33.7053 144.61 32.7957 144.9 32.2 144.9C31.6043 144.9 30.6946 144.61 30.6946 144.61C30.3248 144.457 29.967 144.277 29.624 144.071C28.876 143.616 28.1796 143.082 27.5471 142.477C25.9934 141.004 24.1983 138.677 22.5078 135.015C19.1509 127.737 16.1 115.01 16.1 92.575V92.3738C16.1 86.4973 16.1 78.085 17.71 71.0815C17.9729 69.9331 18.2949 68.7926 18.676 67.6603C22.5055 70.7529 27.2776 72.443 32.2 72.45ZM72.45 104.65C66.6942 104.65 61.2122 103.443 56.2695 101.269C56.3768 98.4032 56.4305 95.4247 56.4305 92.3335C61.3064 95.1295 66.8293 96.6004 72.45 96.6V80.5C72.45 76.23 74.1462 72.1349 77.1656 69.1156C80.1849 66.0963 84.28 64.4 88.55 64.4H104.65C104.651 58.6823 103.129 53.0674 100.241 48.1326C97.3534 43.1977 93.2037 39.1207 88.2184 36.3207C83.2332 33.5207 77.5923 32.0987 71.8754 32.2007C66.1586 32.3027 60.572 33.9251 55.6899 36.9012C55.188 34.2 54.2701 31.593 52.969 29.1732C59.0972 25.7837 66.0037 24.0518 73.0061 24.1485C80.0085 24.2453 86.8645 26.1674 92.8967 29.7249C98.9289 33.2825 103.929 38.3523 107.402 44.4335C110.875 50.5148 112.701 57.3969 112.7 64.4H128.8C133.07 64.4 137.165 66.0963 140.184 69.1156C143.204 72.1349 144.9 76.23 144.9 80.5V120.75C144.9 125.02 143.204 129.115 140.184 132.134C137.165 135.154 133.07 136.85 128.8 136.85H88.55C84.28 136.85 80.1849 135.154 77.1656 132.134C74.1462 129.115 72.45 125.02 72.45 120.75V104.65ZM111.895 72.45C110.308 80.1808 106.487 87.2761 100.907 92.8566C95.326 98.4371 88.2308 102.258 80.5 103.845V120.75C80.5 122.885 81.3481 124.933 82.8578 126.442C84.3674 127.952 86.415 128.8 88.55 128.8H128.8C130.935 128.8 132.983 127.952 134.492 126.442C136.002 124.933 136.85 122.885 136.85 120.75V80.5C136.85 78.365 136.002 76.3175 134.492 74.8078C132.983 73.2981 130.935 72.45 128.8 72.45H111.895ZM103.636 72.45H88.55C86.415 72.45 84.3674 73.2981 82.8578 74.8078C81.3481 76.3175 80.5 78.365 80.5 80.5V95.5857C86.0679 94.1406 91.1486 91.2338 95.2162 87.1662C99.2838 83.0986 102.191 78.018 103.636 72.45Z" fill="#02542D"/>
</svg>
