<svg width="161" height="161" viewBox="0 0 161 161" fill="none" xmlns="http://www.w3.org/2000/svg">
<path d="M93.9502 13.4368C106.226 13.4309 118.133 17.634 127.685 25.3449C137.238 33.0559 143.857 43.8086 146.441 55.8097C149.024 67.8109 147.415 80.335 141.882 91.2933C136.348 102.252 127.225 110.982 116.034 116.027C112.457 123.936 107.015 130.859 100.175 136.202C93.3344 141.546 85.3002 145.15 76.761 146.707C68.2218 148.263 59.4325 147.726 51.1468 145.139C42.8611 142.553 35.3263 137.996 29.1887 131.858C23.0511 125.721 18.4937 118.186 15.9076 109.9C13.3214 101.614 12.7835 92.8251 14.3401 84.2859C15.8967 75.7467 19.5013 67.7125 24.8448 60.8723C30.1882 54.0321 37.1111 48.5901 45.0196 45.0129C49.2716 35.5988 56.1501 27.6119 64.8296 22.0109C73.509 16.4098 83.6204 13.4327 93.9502 13.4368ZM67.1169 53.6868C56.4419 53.6868 46.2042 57.9274 38.6558 65.4757C31.1075 73.0241 26.8669 83.2618 26.8669 93.9368C26.8669 104.612 31.1075 114.849 38.6558 122.398C46.2042 129.946 56.4419 134.187 67.1169 134.187C77.7918 134.187 88.0296 129.946 95.5779 122.398C103.126 114.849 107.367 104.612 107.367 93.9368C107.367 83.2618 103.126 73.0241 95.5779 65.4757C88.0296 57.9274 77.7918 53.6868 67.1169 53.6868ZM73.8252 60.3951V67.1034H87.2419V80.5201H60.4085C59.5704 80.5186 58.762 80.8309 58.1426 81.3956C57.5232 81.9603 57.1376 82.7365 57.0619 83.5712C56.9862 84.406 57.2257 85.2388 57.7334 85.9058C58.241 86.5727 58.98 87.0254 59.8048 87.1748L60.4085 87.2284H73.8252C78.2731 87.2284 82.5388 88.9954 85.684 92.1405C88.8291 95.2856 90.596 99.5514 90.596 103.999C90.596 108.447 88.8291 112.713 85.684 115.858C82.5388 119.003 78.2731 120.77 73.8252 120.77V127.478H60.4085V120.77H46.9919V107.353H73.8252C74.6634 107.355 75.4718 107.043 76.0912 106.478C76.7106 105.913 77.0961 105.137 77.1718 104.302C77.2476 103.468 77.008 102.635 76.5004 101.968C75.9927 101.301 75.2537 100.848 74.429 100.699L73.8252 100.645H60.4085C55.9606 100.645 51.6949 98.8782 48.5498 95.733C45.4046 92.5879 43.6377 88.3222 43.6377 83.8743C43.6377 79.4264 45.4046 75.1606 48.5498 72.0155C51.6949 68.8704 55.9606 67.1034 60.4085 67.1034V60.3951H73.8252ZM93.9502 26.8534C88.266 26.8522 82.646 28.055 77.4603 30.3825C72.2745 32.7101 67.6405 36.1096 63.8633 40.3573C71.4455 39.897 79.039 41.0516 86.1418 43.7447C93.2445 46.4377 99.6946 50.6079 105.066 55.9795C110.437 61.3511 114.606 67.8017 117.298 74.9048C119.99 82.0078 121.144 89.6015 120.683 97.1836C126.782 91.7607 131.089 84.6118 133.032 76.685C134.975 68.7582 134.462 60.4281 131.561 52.7994C128.661 45.1707 123.51 38.604 116.792 33.9702C110.073 29.3364 102.105 26.8544 93.9435 26.8534" fill="#02542D"/>
</svg>
