<svg width="208" height="210" viewBox="0 0 208 210" fill="none" xmlns="http://www.w3.org/2000/svg">
<rect width="208" height="210" fill="#FFF8EE"/>
<path d="M65 36.8375L104 59.5875L143 36.8375M65 173.163V127.75L26 105M182 105L143 127.75V173.163M28.34 60.9L104 105.088L179.66 60.9M104 193.2V105M182 140V70C181.997 66.9312 181.195 63.9171 179.673 61.2602C178.152 58.6033 175.966 56.3969 173.333 54.8625L112.667 19.8625C110.032 18.3266 107.043 17.5179 104 17.5179C100.957 17.5179 97.9683 18.3266 95.3333 19.8625L34.6667 54.8625C32.0343 56.3969 29.8478 58.6033 28.3267 61.2602C26.8055 63.9171 26.0031 66.9312 26 70V140C26.0031 143.069 26.8055 146.083 28.3267 148.74C29.8478 151.397 32.0343 153.603 34.6667 155.137L95.3333 190.137C97.9683 191.673 100.957 192.482 104 192.482C107.043 192.482 110.032 191.673 112.667 190.137L173.333 155.137C175.966 153.603 178.152 151.397 179.673 148.74C181.195 146.083 181.997 143.069 182 140Z" stroke="#02542D" stroke-width="4" stroke-linecap="round" stroke-linejoin="round"/>
</svg>
