<svg width="63" height="63" viewBox="0 0 63 63" fill="none" xmlns="http://www.w3.org/2000/svg">
<path d="M-0.000417454 34.1111C-0.000417454 32.3896 -0.000417454 30.6692 -0.000417454 28.9477C0.0253107 28.8072 0.0627334 28.668 0.074428 28.5264C0.323523 25.7364 0.948015 23.0283 1.94673 20.4161C7.8607 4.94936 24.2741 -3.27907 40.1846 1.23012C56.129 5.74868 66.0425 22.3062 62.1541 38.4412C59.1345 50.9705 51.1249 58.8643 38.6795 62.2219C37.1159 62.6432 35.5067 62.8047 33.9034 63.0001H28.9893C27.938 62.8527 26.8738 62.7672 25.8388 62.5484C13.3583 59.907 5.15339 52.4896 1.19594 40.3664C0.532856 38.3371 0.248678 36.2247 -0.00158691 34.1111H-0.000417454ZM31.4791 35.4897C31.4791 35.4792 31.4791 35.4675 31.4791 35.4569C29.5963 35.4569 27.7146 35.4511 25.8318 35.4604C25.219 35.464 24.598 35.4523 23.9934 35.5389C19.3354 36.2083 15.8867 39.5565 15.0716 44.1851C14.7254 46.15 14.9745 47.9406 16.6328 49.3017C21.6042 53.3849 27.3135 55.1438 33.6952 54.5692C38.1813 54.1655 42.1902 52.4767 45.7617 49.7054C47.3195 48.4965 48.027 47.0418 47.9042 45.0499C47.5955 40.0141 43.2532 35.6477 38.2281 35.5014C35.9792 35.4359 33.728 35.4897 31.478 35.4897H31.4791ZM31.4358 30.1824C37.165 30.1929 41.7306 25.6427 41.7458 19.9071C41.7598 14.1843 37.1919 9.57441 31.4932 9.56154C25.7394 9.54867 21.1516 14.1269 21.1528 19.8801C21.154 25.6182 25.6985 30.1718 31.4358 30.1824Z" fill="#E7F2E4"/>
</svg>
